<?xml version="1.0" encoding="UTF-8" standalone="no"?>
<!-- Created with Inkscape (http://www.inkscape.org/) -->

<svg
   xmlns:dc="http://purl.org/dc/elements/1.1/"
   xmlns:cc="http://creativecommons.org/ns#"
   xmlns:rdf="http://www.w3.org/1999/02/22-rdf-syntax-ns#"
   xmlns:svg="http://www.w3.org/2000/svg"
   xmlns="http://www.w3.org/2000/svg"
   xmlns:sodipodi="http://sodipodi.sourceforge.net/DTD/sodipodi-0.dtd"
   xmlns:inkscape="http://www.inkscape.org/namespaces/inkscape"
   width="1160.29"
   height="1003.13"
   id="svg2"
   version="1.1"
   inkscape:version="0.47pre4 r22446"
   sodipodi:docname="New document 1">
  <defs
     id="defs4">
    <inkscape:perspective
       sodipodi:type="inkscape:persp3d"
       inkscape:vp_x="0 : 526.18109 : 1"
       inkscape:vp_y="0 : 1000 : 0"
       inkscape:vp_z="744.09448 : 526.18109 : 1"
       inkscape:persp3d-origin="372.04724 : 350.78739 : 1"
       id="perspective10" />
    <inkscape:perspective
       id="perspective3598"
       inkscape:persp3d-origin="0.5 : 0.33333333 : 1"
       inkscape:vp_z="1 : 0.5 : 1"
       inkscape:vp_y="0 : 1000 : 0"
       inkscape:vp_x="0 : 0.5 : 1"
       sodipodi:type="inkscape:persp3d" />
    <inkscape:perspective
       id="perspective3620"
       inkscape:persp3d-origin="0.5 : 0.33333333 : 1"
       inkscape:vp_z="1 : 0.5 : 1"
       inkscape:vp_y="0 : 1000 : 0"
       inkscape:vp_x="0 : 0.5 : 1"
       sodipodi:type="inkscape:persp3d" />
    <inkscape:perspective
       id="perspective3642"
       inkscape:persp3d-origin="0.5 : 0.33333333 : 1"
       inkscape:vp_z="1 : 0.5 : 1"
       inkscape:vp_y="0 : 1000 : 0"
       inkscape:vp_x="0 : 0.5 : 1"
       sodipodi:type="inkscape:persp3d" />
    <inkscape:perspective
       id="perspective3664"
       inkscape:persp3d-origin="0.5 : 0.33333333 : 1"
       inkscape:vp_z="1 : 0.5 : 1"
       inkscape:vp_y="0 : 1000 : 0"
       inkscape:vp_x="0 : 0.5 : 1"
       sodipodi:type="inkscape:persp3d" />
    <inkscape:perspective
       id="perspective3686"
       inkscape:persp3d-origin="0.5 : 0.33333333 : 1"
       inkscape:vp_z="1 : 0.5 : 1"
       inkscape:vp_y="0 : 1000 : 0"
       inkscape:vp_x="0 : 0.5 : 1"
       sodipodi:type="inkscape:persp3d" />
    <inkscape:perspective
       id="perspective3717"
       inkscape:persp3d-origin="0.5 : 0.33333333 : 1"
       inkscape:vp_z="1 : 0.5 : 1"
       inkscape:vp_y="0 : 1000 : 0"
       inkscape:vp_x="0 : 0.5 : 1"
       sodipodi:type="inkscape:persp3d" />
    <inkscape:perspective
       id="perspective3778"
       inkscape:persp3d-origin="0.5 : 0.33333333 : 1"
       inkscape:vp_z="1 : 0.5 : 1"
       inkscape:vp_y="0 : 1000 : 0"
       inkscape:vp_x="0 : 0.5 : 1"
       sodipodi:type="inkscape:persp3d" />
    <inkscape:perspective
       id="perspective3848"
       inkscape:persp3d-origin="0.5 : 0.33333333 : 1"
       inkscape:vp_z="1 : 0.5 : 1"
       inkscape:vp_y="0 : 1000 : 0"
       inkscape:vp_x="0 : 0.5 : 1"
       sodipodi:type="inkscape:persp3d" />
    <inkscape:perspective
       id="perspective3918"
       inkscape:persp3d-origin="0.5 : 0.33333333 : 1"
       inkscape:vp_z="1 : 0.5 : 1"
       inkscape:vp_y="0 : 1000 : 0"
       inkscape:vp_x="0 : 0.5 : 1"
       sodipodi:type="inkscape:persp3d" />
    <inkscape:perspective
       id="perspective3988"
       inkscape:persp3d-origin="0.5 : 0.33333333 : 1"
       inkscape:vp_z="1 : 0.5 : 1"
       inkscape:vp_y="0 : 1000 : 0"
       inkscape:vp_x="0 : 0.5 : 1"
       sodipodi:type="inkscape:persp3d" />
  </defs>
  <sodipodi:namedview
     id="base"
     pagecolor="#ffffff"
     bordercolor="#666666"
     borderopacity="1.0"
     inkscape:pageopacity="0.0"
     inkscape:pageshadow="2"
     inkscape:zoom="0.61730422"
     inkscape:cx="782.24321"
     inkscape:cy="401.30136"
     inkscape:document-units="px"
     inkscape:current-layer="layer1"
     showgrid="false"
     inkscape:window-width="1600"
     inkscape:window-height="1126"
     inkscape:window-x="0"
     inkscape:window-y="25"
     inkscape:window-maximized="1" />
  <metadata
     id="metadata7">
    <rdf:RDF>
      <cc:Work
         rdf:about="">
        <dc:format>image/svg+xml</dc:format>
        <dc:type
           rdf:resource="http://purl.org/dc/dcmitype/StillImage" />
        <dc:title></dc:title>
      </cc:Work>
    </rdf:RDF>
  </metadata>
  <g
     inkscape:label="Layer 1"
     inkscape:groupmode="layer"
     id="layer1"
     transform="translate(0,-49.232185)">
    <path
       sodipodi:type="arc"
       style="fill:#c0323e;fill-opacity:1;fill-rule:nonzero;stroke:#000000;stroke-width:11.05351353;stroke-miterlimit:4;stroke-opacity:1;stroke-dasharray:none"
       id="path2816"
       sodipodi:cx="202.14285"
       sodipodi:cy="413.07648"
       sodipodi:rx="217.85715"
       sodipodi:ry="219.28572"
       d="m 420,413.07648 c 0,121.10816 -97.53797,219.28572 -217.85715,219.28572 -120.319177,0 -217.857144,-98.17756 -217.857144,-219.28572 0,-121.10816 97.537967,-219.28572 217.857144,-219.28572 C 322.46203,193.79076 420,291.96832 420,413.07648 z"
       transform="matrix(0.44769597,0,0,0.44477938,-26.77754,717.80228)" />
    <path
       sodipodi:type="arc"
       style="fill:#729fcf;fill-opacity:1;fill-rule:nonzero;stroke:#000000;stroke-width:17.33732224;stroke-miterlimit:4;stroke-opacity:1;stroke-dasharray:none"
       id="path2816-5"
       sodipodi:cx="202.14285"
       sodipodi:cy="413.07648"
       sodipodi:rx="217.85715"
       sodipodi:ry="219.28572"
       d="m 420,413.07648 c 0,121.10816 -97.53797,219.28572 -217.85715,219.28572 -120.319177,0 -217.857144,-98.17756 -217.857144,-219.28572 0,-121.10816 97.537967,-219.28572 217.857144,-219.28572 C 322.46203,193.79076 420,291.96832 420,413.07648 z"
       transform="matrix(0.28148474,0,0,0.27965096,-56.900531,936.84535)" />
    <path
       sodipodi:type="arc"
       style="fill:#729fcf;fill-opacity:1;fill-rule:nonzero;stroke:#000000;stroke-width:17.33732224;stroke-miterlimit:4;stroke-opacity:1;stroke-dasharray:none"
       id="path2816-5-4"
       sodipodi:cx="202.14285"
       sodipodi:cy="413.07648"
       sodipodi:rx="217.85715"
       sodipodi:ry="219.28572"
       d="m 420,413.07648 c 0,121.10816 -97.53797,219.28572 -217.85715,219.28572 -120.319177,0 -217.857144,-98.17756 -217.857144,-219.28572 0,-121.10816 97.537967,-219.28572 217.857144,-219.28572 C 322.46203,193.79076 420,291.96832 420,413.07648 z"
       transform="matrix(0.28148475,0,0,0.27965053,70.611065,936.84522)" />
    <path
       sodipodi:type="arc"
       style="fill:#c0323e;fill-opacity:1;fill-rule:nonzero;stroke:#000000;stroke-width:11.05351353;stroke-miterlimit:4;stroke-opacity:1;stroke-dasharray:none"
       id="path2816-8"
       sodipodi:cx="202.14285"
       sodipodi:cy="413.07648"
       sodipodi:rx="217.85715"
       sodipodi:ry="219.28572"
       d="m 420,413.07648 c 0,121.10816 -97.53797,219.28572 -217.85715,219.28572 -120.319177,0 -217.857144,-98.17756 -217.857144,-219.28572 0,-121.10816 97.537967,-219.28572 217.857144,-219.28572 C 322.46203,193.79076 420,291.96832 420,413.07648 z"
       transform="matrix(0.44769597,0,0,0.44477938,166.63946,768.63428)" />
    <path
       sodipodi:type="arc"
       style="fill:#c0323e;fill-opacity:1;fill-rule:nonzero;stroke:#000000;stroke-width:11.05351353;stroke-miterlimit:4;stroke-opacity:1;stroke-dasharray:none"
       id="path2816-2"
       sodipodi:cx="202.14285"
       sodipodi:cy="413.07648"
       sodipodi:rx="217.85715"
       sodipodi:ry="219.28572"
       d="m 420,413.07648 c 0,121.10816 -97.53797,219.28572 -217.85715,219.28572 -120.319177,0 -217.857144,-98.17756 -217.857144,-219.28572 0,-121.10816 97.537967,-219.28572 217.857144,-219.28572 C 322.46203,193.79076 420,291.96832 420,413.07648 z"
       transform="matrix(0.44769597,0,0,0.44477938,359.99546,717.73828)" />
    <path
       sodipodi:type="arc"
       style="fill:#729fcf;fill-opacity:1;fill-rule:nonzero;stroke:#000000;stroke-width:17.33732224;stroke-miterlimit:4;stroke-opacity:1;stroke-dasharray:none"
       id="path2816-5-9"
       sodipodi:cx="202.14285"
       sodipodi:cy="413.07648"
       sodipodi:rx="217.85715"
       sodipodi:ry="219.28572"
       d="m 420,413.07648 c 0,121.10816 -97.53797,219.28572 -217.85715,219.28572 -120.319177,0 -217.857144,-98.17756 -217.857144,-219.28572 0,-121.10816 97.537967,-219.28572 217.857144,-219.28572 C 322.46203,193.79076 420,291.96832 420,413.07648 z"
       transform="matrix(0.28148474,0,0,0.27965096,329.87247,936.78135)" />
    <path
       sodipodi:type="arc"
       style="fill:#729fcf;fill-opacity:1;fill-rule:nonzero;stroke:#000000;stroke-width:17.33732224;stroke-miterlimit:4;stroke-opacity:1;stroke-dasharray:none"
       id="path2816-5-4-6"
       sodipodi:cx="202.14285"
       sodipodi:cy="413.07648"
       sodipodi:rx="217.85715"
       sodipodi:ry="219.28572"
       d="m 420,413.07648 c 0,121.10816 -97.53797,219.28572 -217.85715,219.28572 -120.319177,0 -217.857144,-98.17756 -217.857144,-219.28572 0,-121.10816 97.537967,-219.28572 217.857144,-219.28572 C 322.46203,193.79076 420,291.96832 420,413.07648 z"
       transform="matrix(0.28148475,0,0,0.27965053,457.38406,936.78122)" />
    <path
       sodipodi:type="arc"
       style="fill:#c0323e;fill-opacity:1;fill-rule:nonzero;stroke:#000000;stroke-width:11.05351353;stroke-miterlimit:4;stroke-opacity:1;stroke-dasharray:none"
       id="path2816-8-5"
       sodipodi:cx="202.14285"
       sodipodi:cy="413.07648"
       sodipodi:rx="217.85715"
       sodipodi:ry="219.28572"
       d="m 420,413.07648 c 0,121.10816 -97.53797,219.28572 -217.85715,219.28572 -120.319177,0 -217.857144,-98.17756 -217.857144,-219.28572 0,-121.10816 97.537967,-219.28572 217.857144,-219.28572 C 322.46203,193.79076 420,291.96832 420,413.07648 z"
       transform="matrix(0.44769597,0,0,0.44477938,553.41246,768.57028)" />
    <path
       sodipodi:type="arc"
       style="fill:#c0323e;fill-opacity:1;fill-rule:nonzero;stroke:#000000;stroke-width:11.05351353;stroke-miterlimit:4;stroke-opacity:1;stroke-dasharray:none"
       id="path2816-4"
       sodipodi:cx="202.14285"
       sodipodi:cy="413.07648"
       sodipodi:rx="217.85715"
       sodipodi:ry="219.28572"
       d="m 420,413.07648 c 0,121.10816 -97.53797,219.28572 -217.85715,219.28572 -120.319177,0 -217.857144,-98.17756 -217.857144,-219.28572 0,-121.10816 97.537967,-219.28572 217.857144,-219.28572 C 322.46203,193.79076 420,291.96832 420,413.07648 z"
       transform="matrix(0.44769597,0,0,0.44477938,746.74746,717.64326)" />
    <path
       sodipodi:type="arc"
       style="fill:#729fcf;fill-opacity:1;fill-rule:nonzero;stroke:#000000;stroke-width:17.33732224;stroke-miterlimit:4;stroke-opacity:1;stroke-dasharray:none"
       id="path2816-5-6"
       sodipodi:cx="202.14285"
       sodipodi:cy="413.07648"
       sodipodi:rx="217.85715"
       sodipodi:ry="219.28572"
       d="m 420,413.07648 c 0,121.10816 -97.53797,219.28572 -217.85715,219.28572 -120.319177,0 -217.857144,-98.17756 -217.857144,-219.28572 0,-121.10816 97.537967,-219.28572 217.857144,-219.28572 C 322.46203,193.79076 420,291.96832 420,413.07648 z"
       transform="matrix(0.28148474,0,0,0.27965096,716.62447,936.68635)" />
    <path
       sodipodi:type="arc"
       style="fill:#729fcf;fill-opacity:1;fill-rule:nonzero;stroke:#000000;stroke-width:17.33732224;stroke-miterlimit:4;stroke-opacity:1;stroke-dasharray:none"
       id="path2816-5-4-0"
       sodipodi:cx="202.14285"
       sodipodi:cy="413.07648"
       sodipodi:rx="217.85715"
       sodipodi:ry="219.28572"
       d="m 420,413.07648 c 0,121.10816 -97.53797,219.28572 -217.85715,219.28572 -120.319177,0 -217.857144,-98.17756 -217.857144,-219.28572 0,-121.10816 97.537967,-219.28572 217.857144,-219.28572 C 322.46203,193.79076 420,291.96832 420,413.07648 z"
       transform="matrix(0.28148475,0,0,0.27965053,844.13606,936.68615)" />
    <path
       sodipodi:type="arc"
       style="fill:#c0323e;fill-opacity:1;fill-rule:nonzero;stroke:#000000;stroke-width:11.05351353;stroke-miterlimit:4;stroke-opacity:1;stroke-dasharray:none"
       id="path2816-8-2"
       sodipodi:cx="202.14285"
       sodipodi:cy="413.07648"
       sodipodi:rx="217.85715"
       sodipodi:ry="219.28572"
       d="m 420,413.07648 c 0,121.10816 -97.53797,219.28572 -217.85715,219.28572 -120.319177,0 -217.857144,-98.17756 -217.857144,-219.28572 0,-121.10816 97.537967,-219.28572 217.857144,-219.28572 C 322.46203,193.79076 420,291.96832 420,413.07648 z"
       transform="matrix(0.44769597,0,0,0.44477938,940.16446,768.47525)" />
    <path
       sodipodi:type="arc"
       style="fill:#c0323e;fill-opacity:1;fill-rule:nonzero;stroke:#000000;stroke-width:11.05351353;stroke-miterlimit:4;stroke-opacity:1;stroke-dasharray:none"
       id="path2816-2-3"
       sodipodi:cx="202.14285"
       sodipodi:cy="413.07648"
       sodipodi:rx="217.85715"
       sodipodi:ry="219.28572"
       d="m 420,413.07648 c 0,121.10816 -97.53797,219.28572 -217.85715,219.28572 -120.319177,0 -217.857144,-98.17756 -217.857144,-219.28572 0,-121.10816 97.537967,-219.28572 217.857144,-219.28572 C 322.46203,193.79076 420,291.96832 420,413.07648 z"
       transform="matrix(0.44769597,0,0,0.44477938,1133.5204,717.57926)" />
    <path
       sodipodi:type="arc"
       style="fill:#729fcf;fill-opacity:1;fill-rule:nonzero;stroke:#000000;stroke-width:17.33732224;stroke-miterlimit:4;stroke-opacity:1;stroke-dasharray:none"
       id="path2816-5-9-9"
       sodipodi:cx="202.14285"
       sodipodi:cy="413.07648"
       sodipodi:rx="217.85715"
       sodipodi:ry="219.28572"
       d="m 420,413.07648 c 0,121.10816 -97.53797,219.28572 -217.85715,219.28572 -120.319177,0 -217.857144,-98.17756 -217.857144,-219.28572 0,-121.10816 97.537967,-219.28572 217.857144,-219.28572 C 322.46203,193.79076 420,291.96832 420,413.07648 z"
       transform="matrix(0.28148474,0,0,0.27965096,1103.3974,936.62235)" />
    <path
       sodipodi:type="arc"
       style="fill:#729fcf;fill-opacity:1;fill-rule:nonzero;stroke:#000000;stroke-width:17.33732224;stroke-miterlimit:4;stroke-opacity:1;stroke-dasharray:none"
       id="path2816-5-4-5"
       sodipodi:cx="202.14285"
       sodipodi:cy="413.07648"
       sodipodi:rx="217.85715"
       sodipodi:ry="219.28572"
       d="m 420,413.07648 c 0,121.10816 -97.53797,219.28572 -217.85715,219.28572 -120.319177,0 -217.857144,-98.17756 -217.857144,-219.28572 0,-121.10816 97.537967,-219.28572 217.857144,-219.28572 C 322.46203,193.79076 420,291.96832 420,413.07648 z"
       transform="matrix(0.28148475,0,0,0.27965053,-122.76594,686.16622)" />
    <path
       sodipodi:type="arc"
       style="fill:#c0323e;fill-opacity:1;fill-rule:nonzero;stroke:#000000;stroke-width:11.05351353;stroke-miterlimit:4;stroke-opacity:1;stroke-dasharray:none"
       id="path2816-8-6"
       sodipodi:cx="202.14285"
       sodipodi:cy="413.07648"
       sodipodi:rx="217.85715"
       sodipodi:ry="219.28572"
       d="m 420,413.07648 c 0,121.10816 -97.53797,219.28572 -217.85715,219.28572 -120.319177,0 -217.857144,-98.17756 -217.857144,-219.28572 0,-121.10816 97.537967,-219.28572 217.857144,-219.28572 C 322.46203,193.79076 420,291.96832 420,413.07648 z"
       transform="matrix(0.44769597,0,0,0.44477938,-26.73754,517.95528)" />
    <path
       sodipodi:type="arc"
       style="fill:#c0323e;fill-opacity:1;fill-rule:nonzero;stroke:#000000;stroke-width:11.05351353;stroke-miterlimit:4;stroke-opacity:1;stroke-dasharray:none"
       id="path2816-2-0"
       sodipodi:cx="202.14285"
       sodipodi:cy="413.07648"
       sodipodi:rx="217.85715"
       sodipodi:ry="219.28572"
       d="m 420,413.07648 c 0,121.10816 -97.53797,219.28572 -217.85715,219.28572 -120.319177,0 -217.857144,-98.17756 -217.857144,-219.28572 0,-121.10816 97.537967,-219.28572 217.857144,-219.28572 C 322.46203,193.79076 420,291.96832 420,413.07648 z"
       transform="matrix(0.44769597,0,0,0.44477938,166.61846,467.05928)" />
    <path
       sodipodi:type="arc"
       style="fill:#729fcf;fill-opacity:1;fill-rule:nonzero;stroke:#000000;stroke-width:17.33732224;stroke-miterlimit:4;stroke-opacity:1;stroke-dasharray:none"
       id="path2816-5-9-5"
       sodipodi:cx="202.14285"
       sodipodi:cy="413.07648"
       sodipodi:rx="217.85715"
       sodipodi:ry="219.28572"
       d="m 420,413.07648 c 0,121.10816 -97.53797,219.28572 -217.85715,219.28572 -120.319177,0 -217.857144,-98.17756 -217.857144,-219.28572 0,-121.10816 97.537967,-219.28572 217.857144,-219.28572 C 322.46203,193.79076 420,291.96832 420,413.07648 z"
       transform="matrix(0.28148474,0,0,0.27965096,136.49547,686.10235)" />
    <path
       sodipodi:type="arc"
       style="fill:#729fcf;fill-opacity:1;fill-rule:nonzero;stroke:#000000;stroke-width:17.33732224;stroke-miterlimit:4;stroke-opacity:1;stroke-dasharray:none"
       id="path2816-5-4-6-2"
       sodipodi:cx="202.14285"
       sodipodi:cy="413.07648"
       sodipodi:rx="217.85715"
       sodipodi:ry="219.28572"
       d="m 420,413.07648 c 0,121.10816 -97.53797,219.28572 -217.85715,219.28572 -120.319177,0 -217.857144,-98.17756 -217.857144,-219.28572 0,-121.10816 97.537967,-219.28572 217.857144,-219.28572 C 322.46203,193.79076 420,291.96832 420,413.07648 z"
       transform="matrix(0.28148475,0,0,0.27965053,264.00706,686.10222)" />
    <path
       sodipodi:type="arc"
       style="fill:#c0323e;fill-opacity:1;fill-rule:nonzero;stroke:#000000;stroke-width:11.05351353;stroke-miterlimit:4;stroke-opacity:1;stroke-dasharray:none"
       id="path2816-8-5-7"
       sodipodi:cx="202.14285"
       sodipodi:cy="413.07648"
       sodipodi:rx="217.85715"
       sodipodi:ry="219.28572"
       d="m 420,413.07648 c 0,121.10816 -97.53797,219.28572 -217.85715,219.28572 -120.319177,0 -217.857144,-98.17756 -217.857144,-219.28572 0,-121.10816 97.537967,-219.28572 217.857144,-219.28572 C 322.46203,193.79076 420,291.96832 420,413.07648 z"
       transform="matrix(0.44769597,0,0,0.44477938,360.03546,517.89128)" />
    <path
       sodipodi:type="arc"
       style="fill:#c0323e;fill-opacity:1;fill-rule:nonzero;stroke:#000000;stroke-width:11.05351353;stroke-miterlimit:4;stroke-opacity:1;stroke-dasharray:none"
       id="path2816-4-6"
       sodipodi:cx="202.14285"
       sodipodi:cy="413.07648"
       sodipodi:rx="217.85715"
       sodipodi:ry="219.28572"
       d="m 420,413.07648 c 0,121.10816 -97.53797,219.28572 -217.85715,219.28572 -120.319177,0 -217.857144,-98.17756 -217.857144,-219.28572 0,-121.10816 97.537967,-219.28572 217.857144,-219.28572 C 322.46203,193.79076 420,291.96832 420,413.07648 z"
       transform="matrix(0.44769597,0,0,0.44477938,553.37046,466.96426)" />
    <path
       sodipodi:type="arc"
       style="fill:#729fcf;fill-opacity:1;fill-rule:nonzero;stroke:#000000;stroke-width:17.33732224;stroke-miterlimit:4;stroke-opacity:1;stroke-dasharray:none"
       id="path2816-5-6-6"
       sodipodi:cx="202.14285"
       sodipodi:cy="413.07648"
       sodipodi:rx="217.85715"
       sodipodi:ry="219.28572"
       d="m 420,413.07648 c 0,121.10816 -97.53797,219.28572 -217.85715,219.28572 -120.319177,0 -217.857144,-98.17756 -217.857144,-219.28572 0,-121.10816 97.537967,-219.28572 217.857144,-219.28572 C 322.46203,193.79076 420,291.96832 420,413.07648 z"
       transform="matrix(0.28148474,0,0,0.27965096,523.24747,686.00735)" />
    <path
       sodipodi:type="arc"
       style="fill:#729fcf;fill-opacity:1;fill-rule:nonzero;stroke:#000000;stroke-width:17.33732224;stroke-miterlimit:4;stroke-opacity:1;stroke-dasharray:none"
       id="path2816-5-4-0-3"
       sodipodi:cx="202.14285"
       sodipodi:cy="413.07648"
       sodipodi:rx="217.85715"
       sodipodi:ry="219.28572"
       d="m 420,413.07648 c 0,121.10816 -97.53797,219.28572 -217.85715,219.28572 -120.319177,0 -217.857144,-98.17756 -217.857144,-219.28572 0,-121.10816 97.537967,-219.28572 217.857144,-219.28572 C 322.46203,193.79076 420,291.96832 420,413.07648 z"
       transform="matrix(0.28148475,0,0,0.27965053,650.75906,686.00715)" />
    <path
       sodipodi:type="arc"
       style="fill:#c0323e;fill-opacity:1;fill-rule:nonzero;stroke:#000000;stroke-width:11.05351353;stroke-miterlimit:4;stroke-opacity:1;stroke-dasharray:none"
       id="path2816-8-2-2"
       sodipodi:cx="202.14285"
       sodipodi:cy="413.07648"
       sodipodi:rx="217.85715"
       sodipodi:ry="219.28572"
       d="m 420,413.07648 c 0,121.10816 -97.53797,219.28572 -217.85715,219.28572 -120.319177,0 -217.857144,-98.17756 -217.857144,-219.28572 0,-121.10816 97.537967,-219.28572 217.857144,-219.28572 C 322.46203,193.79076 420,291.96832 420,413.07648 z"
       transform="matrix(0.44769597,0,0,0.44477938,746.78746,517.79625)" />
    <path
       sodipodi:type="arc"
       style="fill:#c0323e;fill-opacity:1;fill-rule:nonzero;stroke:#000000;stroke-width:11.05351353;stroke-miterlimit:4;stroke-opacity:1;stroke-dasharray:none"
       id="path2816-2-3-4"
       sodipodi:cx="202.14285"
       sodipodi:cy="413.07648"
       sodipodi:rx="217.85715"
       sodipodi:ry="219.28572"
       d="m 420,413.07648 c 0,121.10816 -97.53797,219.28572 -217.85715,219.28572 -120.319177,0 -217.857144,-98.17756 -217.857144,-219.28572 0,-121.10816 97.537967,-219.28572 217.857144,-219.28572 C 322.46203,193.79076 420,291.96832 420,413.07648 z"
       transform="matrix(0.44769597,0,0,0.44477938,940.1434,466.90026)" />
    <path
       sodipodi:type="arc"
       style="fill:#729fcf;fill-opacity:1;fill-rule:nonzero;stroke:#000000;stroke-width:17.33732224;stroke-miterlimit:4;stroke-opacity:1;stroke-dasharray:none"
       id="path2816-5-9-9-3"
       sodipodi:cx="202.14285"
       sodipodi:cy="413.07648"
       sodipodi:rx="217.85715"
       sodipodi:ry="219.28572"
       d="m 420,413.07648 c 0,121.10816 -97.53797,219.28572 -217.85715,219.28572 -120.319177,0 -217.857144,-98.17756 -217.857144,-219.28572 0,-121.10816 97.537967,-219.28572 217.857144,-219.28572 C 322.46203,193.79076 420,291.96832 420,413.07648 z"
       transform="matrix(0.28148474,0,0,0.27965096,910.0204,685.94335)" />
    <path
       sodipodi:type="arc"
       style="fill:#729fcf;fill-opacity:1;fill-rule:nonzero;stroke:#000000;stroke-width:17.33732224;stroke-miterlimit:4;stroke-opacity:1;stroke-dasharray:none"
       id="path2816-5-4-6-8-6"
       sodipodi:cx="202.14285"
       sodipodi:cy="413.07648"
       sodipodi:rx="217.85715"
       sodipodi:ry="219.28572"
       d="m 420,413.07648 c 0,121.10816 -97.53797,219.28572 -217.85715,219.28572 -120.319177,0 -217.857144,-98.17756 -217.857144,-219.28572 0,-121.10816 97.537967,-219.28572 217.857144,-219.28572 C 322.46203,193.79076 420,291.96832 420,413.07648 z"
       transform="matrix(0.28148475,0,0,0.27965053,1037.532,685.94315)" />
    <path
       sodipodi:type="arc"
       style="fill:#c0323e;fill-opacity:1;fill-rule:nonzero;stroke:#000000;stroke-width:11.05351353;stroke-miterlimit:4;stroke-opacity:1;stroke-dasharray:none"
       id="path2816-8-5-6-0"
       sodipodi:cx="202.14285"
       sodipodi:cy="413.07648"
       sodipodi:rx="217.85715"
       sodipodi:ry="219.28572"
       d="m 420,413.07648 c 0,121.10816 -97.53797,219.28572 -217.85715,219.28572 -120.319177,0 -217.857144,-98.17756 -217.857144,-219.28572 0,-121.10816 97.537967,-219.28572 217.857144,-219.28572 C 322.46203,193.79076 420,291.96832 420,413.07648 z"
       transform="matrix(0.44769597,0,0,0.44477938,1133.5604,517.73225)" />
    <path
       sodipodi:type="arc"
       style="fill:#c0323e;fill-opacity:1;fill-rule:nonzero;stroke:#000000;stroke-width:11.05351353;stroke-miterlimit:4;stroke-opacity:1;stroke-dasharray:none"
       id="path2816-9-4"
       sodipodi:cx="202.14285"
       sodipodi:cy="413.07648"
       sodipodi:rx="217.85715"
       sodipodi:ry="219.28572"
       d="m 420,413.07648 a 217.85715,219.28572 0 1 1 -435.714294,0 217.85715,219.28572 0 1 1 435.714294,0 z"
       transform="matrix(0.44769597,0,0,0.44477938,-26.577517,216.35128)" />
    <path
       sodipodi:type="arc"
       style="fill:#729fcf;fill-opacity:1;fill-rule:nonzero;stroke:#000000;stroke-width:17.33732224;stroke-miterlimit:4;stroke-opacity:1;stroke-dasharray:none"
       id="path2816-5-7-1"
       sodipodi:cx="202.14285"
       sodipodi:cy="413.07648"
       sodipodi:rx="217.85715"
       sodipodi:ry="219.28572"
       d="m 420,413.07648 a 217.85715,219.28572 0 1 1 -435.714294,0 217.85715,219.28572 0 1 1 435.714294,0 z"
       transform="matrix(0.28148474,0,0,0.27965096,-56.700508,435.39435)" />
    <path
       sodipodi:type="arc"
       style="fill:#729fcf;fill-opacity:1;fill-rule:nonzero;stroke:#000000;stroke-width:17.33732224;stroke-miterlimit:4;stroke-opacity:1;stroke-dasharray:none"
       id="path2816-5-4-5-6"
       sodipodi:cx="202.14285"
       sodipodi:cy="413.07648"
       sodipodi:rx="217.85715"
       sodipodi:ry="219.28572"
       d="m 420,413.07648 a 217.85715,219.28572 0 1 1 -435.714294,0 217.85715,219.28572 0 1 1 435.714294,0 z"
       transform="matrix(0.28148475,0,0,0.27965053,70.811088,435.39422)" />
    <path
       sodipodi:type="arc"
       style="fill:#c0323e;fill-opacity:1;fill-rule:nonzero;stroke:#000000;stroke-width:11.05351353;stroke-miterlimit:4;stroke-opacity:1;stroke-dasharray:none"
       id="path2816-8-6-1"
       sodipodi:cx="202.14285"
       sodipodi:cy="413.07648"
       sodipodi:rx="217.85715"
       sodipodi:ry="219.28572"
       d="m 420,413.07648 a 217.85715,219.28572 0 1 1 -435.714294,0 217.85715,219.28572 0 1 1 435.714294,0 z"
       transform="matrix(0.44769597,0,0,0.44477938,166.83948,267.18328)" />
    <path
       sodipodi:type="arc"
       style="fill:#c0323e;fill-opacity:1;fill-rule:nonzero;stroke:#000000;stroke-width:11.05351353;stroke-miterlimit:4;stroke-opacity:1;stroke-dasharray:none"
       id="path2816-2-0-6"
       sodipodi:cx="202.14285"
       sodipodi:cy="413.07648"
       sodipodi:rx="217.85715"
       sodipodi:ry="219.28572"
       d="m 420,413.07648 a 217.85715,219.28572 0 1 1 -435.714294,0 217.85715,219.28572 0 1 1 435.714294,0 z"
       transform="matrix(0.44769597,0,0,0.44477938,360.19548,216.28728)" />
    <path
       sodipodi:type="arc"
       style="fill:#729fcf;fill-opacity:1;fill-rule:nonzero;stroke:#000000;stroke-width:17.33732224;stroke-miterlimit:4;stroke-opacity:1;stroke-dasharray:none"
       id="path2816-5-9-5-8"
       sodipodi:cx="202.14285"
       sodipodi:cy="413.07648"
       sodipodi:rx="217.85715"
       sodipodi:ry="219.28572"
       d="m 420,413.07648 a 217.85715,219.28572 0 1 1 -435.714294,0 217.85715,219.28572 0 1 1 435.714294,0 z"
       transform="matrix(0.28148474,0,0,0.27965096,330.07249,435.33035)" />
    <path
       sodipodi:type="arc"
       style="fill:#729fcf;fill-opacity:1;fill-rule:nonzero;stroke:#000000;stroke-width:17.33732224;stroke-miterlimit:4;stroke-opacity:1;stroke-dasharray:none"
       id="path2816-5-4-6-2-7"
       sodipodi:cx="202.14285"
       sodipodi:cy="413.07648"
       sodipodi:rx="217.85715"
       sodipodi:ry="219.28572"
       d="m 420,413.07648 a 217.85715,219.28572 0 1 1 -435.714294,0 217.85715,219.28572 0 1 1 435.714294,0 z"
       transform="matrix(0.28148475,0,0,0.27965053,457.58408,435.33022)" />
    <path
       sodipodi:type="arc"
       style="fill:#c0323e;fill-opacity:1;fill-rule:nonzero;stroke:#000000;stroke-width:11.05351353;stroke-miterlimit:4;stroke-opacity:1;stroke-dasharray:none"
       id="path2816-8-5-7-0"
       sodipodi:cx="202.14285"
       sodipodi:cy="413.07648"
       sodipodi:rx="217.85715"
       sodipodi:ry="219.28572"
       d="m 420,413.07648 a 217.85715,219.28572 0 1 1 -435.714294,0 217.85715,219.28572 0 1 1 435.714294,0 z"
       transform="matrix(0.44769597,0,0,0.44477938,553.61248,267.11928)" />
    <path
       sodipodi:type="arc"
       style="fill:#c0323e;fill-opacity:1;fill-rule:nonzero;stroke:#000000;stroke-width:11.05351353;stroke-miterlimit:4;stroke-opacity:1;stroke-dasharray:none"
       id="path2816-4-6-4"
       sodipodi:cx="202.14285"
       sodipodi:cy="413.07648"
       sodipodi:rx="217.85715"
       sodipodi:ry="219.28572"
       d="m 420,413.07648 a 217.85715,219.28572 0 1 1 -435.714294,0 217.85715,219.28572 0 1 1 435.714294,0 z"
       transform="matrix(0.44769597,0,0,0.44477938,746.94748,216.19226)" />
    <path
       sodipodi:type="arc"
       style="fill:#729fcf;fill-opacity:1;fill-rule:nonzero;stroke:#000000;stroke-width:17.33732224;stroke-miterlimit:4;stroke-opacity:1;stroke-dasharray:none"
       id="path2816-5-6-6-9"
       sodipodi:cx="202.14285"
       sodipodi:cy="413.07648"
       sodipodi:rx="217.85715"
       sodipodi:ry="219.28572"
       d="m 420,413.07648 a 217.85715,219.28572 0 1 1 -435.714294,0 217.85715,219.28572 0 1 1 435.714294,0 z"
       transform="matrix(0.28148474,0,0,0.27965096,716.82449,435.23535)" />
    <path
       sodipodi:type="arc"
       style="fill:#729fcf;fill-opacity:1;fill-rule:nonzero;stroke:#000000;stroke-width:17.33732224;stroke-miterlimit:4;stroke-opacity:1;stroke-dasharray:none"
       id="path2816-5-4-0-3-6"
       sodipodi:cx="202.14285"
       sodipodi:cy="413.07648"
       sodipodi:rx="217.85715"
       sodipodi:ry="219.28572"
       d="m 420,413.07648 a 217.85715,219.28572 0 1 1 -435.714294,0 217.85715,219.28572 0 1 1 435.714294,0 z"
       transform="matrix(0.28148475,0,0,0.27965053,844.33608,435.23515)" />
    <path
       sodipodi:type="arc"
       style="fill:#c0323e;fill-opacity:1;fill-rule:nonzero;stroke:#000000;stroke-width:11.05351353;stroke-miterlimit:4;stroke-opacity:1;stroke-dasharray:none"
       id="path2816-8-2-2-9"
       sodipodi:cx="202.14285"
       sodipodi:cy="413.07648"
       sodipodi:rx="217.85715"
       sodipodi:ry="219.28572"
       d="m 420,413.07648 a 217.85715,219.28572 0 1 1 -435.714294,0 217.85715,219.28572 0 1 1 435.714294,0 z"
       transform="matrix(0.44769597,0,0,0.44477938,940.36448,267.02425)" />
    <path
       sodipodi:type="arc"
       style="fill:#c0323e;fill-opacity:1;fill-rule:nonzero;stroke:#000000;stroke-width:11.05351353;stroke-miterlimit:4;stroke-opacity:1;stroke-dasharray:none"
       id="path2816-2-3-4-5"
       sodipodi:cx="202.14285"
       sodipodi:cy="413.07648"
       sodipodi:rx="217.85715"
       sodipodi:ry="219.28572"
       d="m 420,413.07648 a 217.85715,219.28572 0 1 1 -435.714294,0 217.85715,219.28572 0 1 1 435.714294,0 z"
       transform="matrix(0.44769597,0,0,0.44477938,1133.7204,216.12826)" />
    <path
       sodipodi:type="arc"
       style="fill:#729fcf;fill-opacity:1;fill-rule:nonzero;stroke:#000000;stroke-width:17.33732224;stroke-miterlimit:4;stroke-opacity:1;stroke-dasharray:none"
       id="path2816-5-9-9-3-1"
       sodipodi:cx="202.14285"
       sodipodi:cy="413.07648"
       sodipodi:rx="217.85715"
       sodipodi:ry="219.28572"
       d="m 420,413.07648 a 217.85715,219.28572 0 1 1 -435.714294,0 217.85715,219.28572 0 1 1 435.714294,0 z"
       transform="matrix(0.28148474,0,0,0.27965096,1103.5974,435.17135)" />
    <path
       sodipodi:type="arc"
       style="fill:#729fcf;fill-opacity:1;fill-rule:nonzero;stroke:#000000;stroke-width:17.33732224;stroke-miterlimit:4;stroke-opacity:1;stroke-dasharray:none"
       id="path2816-5-4-5-6-2"
       sodipodi:cx="202.14285"
       sodipodi:cy="413.07648"
       sodipodi:rx="217.85715"
       sodipodi:ry="219.28572"
       d="m 420,413.07648 c 0,121.10816 -97.53797,219.28572 -217.85715,219.28572 -120.319177,0 -217.857144,-98.17756 -217.857144,-219.28572 0,-121.10816 97.537967,-219.28572 217.857144,-219.28572 C 322.46203,193.79076 420,291.96832 420,413.07648 z"
       transform="matrix(0.28148475,0,0,0.27965053,-122.85084,184.53322)" />
    <path
       sodipodi:type="arc"
       style="fill:#c0323e;fill-opacity:1;fill-rule:nonzero;stroke:#000000;stroke-width:11.05351353;stroke-miterlimit:4;stroke-opacity:1;stroke-dasharray:none"
       id="path2816-8-6-1-3"
       sodipodi:cx="202.14285"
       sodipodi:cy="413.07648"
       sodipodi:rx="217.85715"
       sodipodi:ry="219.28572"
       d="m 420,413.07648 c 0,121.10816 -97.53797,219.28572 -217.85715,219.28572 -120.319177,0 -217.857144,-98.17756 -217.857144,-219.28572 0,-121.10816 97.537967,-219.28572 217.857144,-219.28572 C 322.46203,193.79076 420,291.96832 420,413.07648 z"
       transform="matrix(0.44769597,0,0,0.44477938,-26.82244,16.32228)" />
    <path
       sodipodi:type="arc"
       style="fill:#c0323e;fill-opacity:1;fill-rule:nonzero;stroke:#000000;stroke-width:11.05351353;stroke-miterlimit:4;stroke-opacity:1;stroke-dasharray:none"
       id="path2816-2-0-6-6"
       sodipodi:cx="202.14285"
       sodipodi:cy="413.07648"
       sodipodi:rx="217.85715"
       sodipodi:ry="219.28572"
       d="m 420,413.07648 c 0,121.10816 -97.53797,219.28572 -217.85715,219.28572 -120.319177,0 -217.857144,-98.17756 -217.857144,-219.28572 0,-121.10816 97.537967,-219.28572 217.857144,-219.28572 C 322.46203,193.79076 420,291.96832 420,413.07648 z"
       transform="matrix(0.44769597,0,0,0.44477938,166.53356,-34.57372)" />
    <path
       sodipodi:type="arc"
       style="fill:#729fcf;fill-opacity:1;fill-rule:nonzero;stroke:#000000;stroke-width:17.33732224;stroke-miterlimit:4;stroke-opacity:1;stroke-dasharray:none"
       id="path2816-5-9-5-8-6"
       sodipodi:cx="202.14285"
       sodipodi:cy="413.07648"
       sodipodi:rx="217.85715"
       sodipodi:ry="219.28572"
       d="m 420,413.07648 c 0,121.10816 -97.53797,219.28572 -217.85715,219.28572 -120.319177,0 -217.857144,-98.17756 -217.857144,-219.28572 0,-121.10816 97.537967,-219.28572 217.857144,-219.28572 C 322.46203,193.79076 420,291.96832 420,413.07648 z"
       transform="matrix(0.28148474,0,0,0.27965096,136.41057,184.46935)" />
    <path
       sodipodi:type="arc"
       style="fill:#729fcf;fill-opacity:1;fill-rule:nonzero;stroke:#000000;stroke-width:17.33732224;stroke-miterlimit:4;stroke-opacity:1;stroke-dasharray:none"
       id="path2816-5-4-6-2-7-7"
       sodipodi:cx="202.14285"
       sodipodi:cy="413.07648"
       sodipodi:rx="217.85715"
       sodipodi:ry="219.28572"
       d="m 420,413.07648 c 0,121.10816 -97.53797,219.28572 -217.85715,219.28572 -120.319177,0 -217.857144,-98.17756 -217.857144,-219.28572 0,-121.10816 97.537967,-219.28572 217.857144,-219.28572 C 322.46203,193.79076 420,291.96832 420,413.07648 z"
       transform="matrix(0.28148475,0,0,0.27965053,263.92216,184.46922)" />
    <path
       sodipodi:type="arc"
       style="fill:#c0323e;fill-opacity:1;fill-rule:nonzero;stroke:#000000;stroke-width:11.05351353;stroke-miterlimit:4;stroke-opacity:1;stroke-dasharray:none"
       id="path2816-8-5-7-0-7"
       sodipodi:cx="202.14285"
       sodipodi:cy="413.07648"
       sodipodi:rx="217.85715"
       sodipodi:ry="219.28572"
       d="m 420,413.07648 c 0,121.10816 -97.53797,219.28572 -217.85715,219.28572 -120.319177,0 -217.857144,-98.17756 -217.857144,-219.28572 0,-121.10816 97.537967,-219.28572 217.857144,-219.28572 C 322.46203,193.79076 420,291.96832 420,413.07648 z"
       transform="matrix(0.44769597,0,0,0.44477938,359.95056,16.25828)" />
    <path
       sodipodi:type="arc"
       style="fill:#c0323e;fill-opacity:1;fill-rule:nonzero;stroke:#000000;stroke-width:11.05351353;stroke-miterlimit:4;stroke-opacity:1;stroke-dasharray:none"
       id="path2816-4-6-4-4"
       sodipodi:cx="202.14285"
       sodipodi:cy="413.07648"
       sodipodi:rx="217.85715"
       sodipodi:ry="219.28572"
       d="m 420,413.07648 c 0,121.10816 -97.53797,219.28572 -217.85715,219.28572 -120.319177,0 -217.857144,-98.17756 -217.857144,-219.28572 0,-121.10816 97.537967,-219.28572 217.857144,-219.28572 C 322.46203,193.79076 420,291.96832 420,413.07648 z"
       transform="matrix(0.44769597,0,0,0.44477938,553.28556,-34.66874)" />
    <path
       sodipodi:type="arc"
       style="fill:#729fcf;fill-opacity:1;fill-rule:nonzero;stroke:#000000;stroke-width:17.33732224;stroke-miterlimit:4;stroke-opacity:1;stroke-dasharray:none"
       id="path2816-5-6-6-9-6"
       sodipodi:cx="202.14285"
       sodipodi:cy="413.07648"
       sodipodi:rx="217.85715"
       sodipodi:ry="219.28572"
       d="m 420,413.07648 c 0,121.10816 -97.53797,219.28572 -217.85715,219.28572 -120.319177,0 -217.857144,-98.17756 -217.857144,-219.28572 0,-121.10816 97.537967,-219.28572 217.857144,-219.28572 C 322.46203,193.79076 420,291.96832 420,413.07648 z"
       transform="matrix(0.28148474,0,0,0.27965096,523.16257,184.37435)" />
    <path
       sodipodi:type="arc"
       style="fill:#729fcf;fill-opacity:1;fill-rule:nonzero;stroke:#000000;stroke-width:17.33732224;stroke-miterlimit:4;stroke-opacity:1;stroke-dasharray:none"
       id="path2816-5-4-0-3-6-9"
       sodipodi:cx="202.14285"
       sodipodi:cy="413.07648"
       sodipodi:rx="217.85715"
       sodipodi:ry="219.28572"
       d="m 420,413.07648 c 0,121.10816 -97.53797,219.28572 -217.85715,219.28572 -120.319177,0 -217.857144,-98.17756 -217.857144,-219.28572 0,-121.10816 97.537967,-219.28572 217.857144,-219.28572 C 322.46203,193.79076 420,291.96832 420,413.07648 z"
       transform="matrix(0.28148475,0,0,0.27965053,650.67416,184.37415)" />
    <path
       sodipodi:type="arc"
       style="fill:#c0323e;fill-opacity:1;fill-rule:nonzero;stroke:#000000;stroke-width:11.05351353;stroke-miterlimit:4;stroke-opacity:1;stroke-dasharray:none"
       id="path2816-8-2-2-9-6"
       sodipodi:cx="202.14285"
       sodipodi:cy="413.07648"
       sodipodi:rx="217.85715"
       sodipodi:ry="219.28572"
       d="m 420,413.07648 c 0,121.10816 -97.53797,219.28572 -217.85715,219.28572 -120.319177,0 -217.857144,-98.17756 -217.857144,-219.28572 0,-121.10816 97.537967,-219.28572 217.857144,-219.28572 C 322.46203,193.79076 420,291.96832 420,413.07648 z"
       transform="matrix(0.44769597,0,0,0.44477938,746.70256,16.16325)" />
    <path
       sodipodi:type="arc"
       style="fill:#c0323e;fill-opacity:1;fill-rule:nonzero;stroke:#000000;stroke-width:11.05351353;stroke-miterlimit:4;stroke-opacity:1;stroke-dasharray:none"
       id="path2816-2-3-4-5-0"
       sodipodi:cx="202.14285"
       sodipodi:cy="413.07648"
       sodipodi:rx="217.85715"
       sodipodi:ry="219.28572"
       d="m 420,413.07648 c 0,121.10816 -97.53797,219.28572 -217.85715,219.28572 -120.319177,0 -217.857144,-98.17756 -217.857144,-219.28572 0,-121.10816 97.537967,-219.28572 217.857144,-219.28572 C 322.46203,193.79076 420,291.96832 420,413.07648 z"
       transform="matrix(0.44769597,0,0,0.44477938,940.0585,-34.73274)" />
    <path
       sodipodi:type="arc"
       style="fill:#729fcf;fill-opacity:1;fill-rule:nonzero;stroke:#000000;stroke-width:17.33732224;stroke-miterlimit:4;stroke-opacity:1;stroke-dasharray:none"
       id="path2816-5-9-9-3-1-9"
       sodipodi:cx="202.14285"
       sodipodi:cy="413.07648"
       sodipodi:rx="217.85715"
       sodipodi:ry="219.28572"
       d="m 420,413.07648 c 0,121.10816 -97.53797,219.28572 -217.85715,219.28572 -120.319177,0 -217.857144,-98.17756 -217.857144,-219.28572 0,-121.10816 97.537967,-219.28572 217.857144,-219.28572 C 322.46203,193.79076 420,291.96832 420,413.07648 z"
       transform="matrix(0.28148474,0,0,0.27965096,909.9355,184.31035)" />
    <path
       sodipodi:type="arc"
       style="fill:#729fcf;fill-opacity:1;fill-rule:nonzero;stroke:#000000;stroke-width:17.33732224;stroke-miterlimit:4;stroke-opacity:1;stroke-dasharray:none"
       id="path2816-5-4-6-8-6-6-9"
       sodipodi:cx="202.14285"
       sodipodi:cy="413.07648"
       sodipodi:rx="217.85715"
       sodipodi:ry="219.28572"
       d="m 420,413.07648 c 0,121.10816 -97.53797,219.28572 -217.85715,219.28572 -120.319177,0 -217.857144,-98.17756 -217.857144,-219.28572 0,-121.10816 97.537967,-219.28572 217.857144,-219.28572 C 322.46203,193.79076 420,291.96832 420,413.07648 z"
       transform="matrix(0.28148475,0,0,0.27965053,1037.4471,184.31015)" />
    <path
       sodipodi:type="arc"
       style="fill:#c0323e;fill-opacity:1;fill-rule:nonzero;stroke:#000000;stroke-width:11.05351353;stroke-miterlimit:4;stroke-opacity:1;stroke-dasharray:none"
       id="path2816-8-5-6-0-0-5"
       sodipodi:cx="202.14285"
       sodipodi:cy="413.07648"
       sodipodi:rx="217.85715"
       sodipodi:ry="219.28572"
       d="m 420,413.07648 c 0,121.10816 -97.53797,219.28572 -217.85715,219.28572 -120.319177,0 -217.857144,-98.17756 -217.857144,-219.28572 0,-121.10816 97.537967,-219.28572 217.857144,-219.28572 C 322.46203,193.79076 420,291.96832 420,413.07648 z"
       transform="matrix(0.44769597,0,0,0.44477938,1133.4755,16.09925)" />
    <path
       sodipodi:type="arc"
       style="fill:#729fcf;fill-opacity:1;fill-rule:nonzero;stroke:#000000;stroke-width:17.33732224;stroke-miterlimit:4;stroke-opacity:1;stroke-dasharray:none"
       id="path2816-5-7-1-9-6"
       sodipodi:cx="202.14285"
       sodipodi:cy="413.07648"
       sodipodi:rx="217.85715"
       sodipodi:ry="219.28572"
       d="m 420,413.07648 c 0,121.10816 -97.53797,219.28572 -217.85715,219.28572 -120.319177,0 -217.857144,-98.17756 -217.857144,-219.28572 0,-121.10816 97.537967,-219.28572 217.857144,-219.28572 C 322.46203,193.79076 420,291.96832 420,413.07648 z"
       transform="matrix(0.28148474,0,0,0.27965096,-56.900129,-66.28865)" />
    <path
       sodipodi:type="arc"
       style="fill:#729fcf;fill-opacity:1;fill-rule:nonzero;stroke:#000000;stroke-width:17.33732224;stroke-miterlimit:4;stroke-opacity:1;stroke-dasharray:none"
       id="path2816-5-4-5-6-2-2"
       sodipodi:cx="202.14285"
       sodipodi:cy="413.07648"
       sodipodi:rx="217.85715"
       sodipodi:ry="219.28572"
       d="m 420,413.07648 c 0,121.10816 -97.53797,219.28572 -217.85715,219.28572 -120.319177,0 -217.857144,-98.17756 -217.857144,-219.28572 0,-121.10816 97.537967,-219.28572 217.857144,-219.28572 C 322.46203,193.79076 420,291.96832 420,413.07648 z"
       transform="matrix(0.28148475,0,0,0.27965053,70.611467,-66.28878)" />
    <path
       sodipodi:type="arc"
       style="fill:#729fcf;fill-opacity:1;fill-rule:nonzero;stroke:#000000;stroke-width:17.33732224;stroke-miterlimit:4;stroke-opacity:1;stroke-dasharray:none"
       id="path2816-5-9-5-8-6-6"
       sodipodi:cx="202.14285"
       sodipodi:cy="413.07648"
       sodipodi:rx="217.85715"
       sodipodi:ry="219.28572"
       d="m 420,413.07648 c 0,121.10816 -97.53797,219.28572 -217.85715,219.28572 -120.319177,0 -217.857144,-98.17756 -217.857144,-219.28572 0,-121.10816 97.537967,-219.28572 217.857144,-219.28572 C 322.46203,193.79076 420,291.96832 420,413.07648 z"
       transform="matrix(0.28148474,0,0,0.27965096,329.87287,-66.35265)" />
    <path
       sodipodi:type="arc"
       style="fill:#729fcf;fill-opacity:1;fill-rule:nonzero;stroke:#000000;stroke-width:17.33732224;stroke-miterlimit:4;stroke-opacity:1;stroke-dasharray:none"
       id="path2816-5-4-6-2-7-7-2"
       sodipodi:cx="202.14285"
       sodipodi:cy="413.07648"
       sodipodi:rx="217.85715"
       sodipodi:ry="219.28572"
       d="m 420,413.07648 c 0,121.10816 -97.53797,219.28572 -217.85715,219.28572 -120.319177,0 -217.857144,-98.17756 -217.857144,-219.28572 0,-121.10816 97.537967,-219.28572 217.857144,-219.28572 C 322.46203,193.79076 420,291.96832 420,413.07648 z"
       transform="matrix(0.28148475,0,0,0.27965053,457.38446,-66.35278)" />
    <path
       sodipodi:type="arc"
       style="fill:#729fcf;fill-opacity:1;fill-rule:nonzero;stroke:#000000;stroke-width:17.33732224;stroke-miterlimit:4;stroke-opacity:1;stroke-dasharray:none"
       id="path2816-5-6-6-9-6-7"
       sodipodi:cx="202.14285"
       sodipodi:cy="413.07648"
       sodipodi:rx="217.85715"
       sodipodi:ry="219.28572"
       d="m 420,413.07648 c 0,121.10816 -97.53797,219.28572 -217.85715,219.28572 -120.319177,0 -217.857144,-98.17756 -217.857144,-219.28572 0,-121.10816 97.537967,-219.28572 217.857144,-219.28572 C 322.46203,193.79076 420,291.96832 420,413.07648 z"
       transform="matrix(0.28148474,0,0,0.27965096,716.62487,-66.44765)" />
    <path
       sodipodi:type="arc"
       style="fill:#729fcf;fill-opacity:1;fill-rule:nonzero;stroke:#000000;stroke-width:17.33732224;stroke-miterlimit:4;stroke-opacity:1;stroke-dasharray:none"
       id="path2816-5-4-0-3-6-9-6"
       sodipodi:cx="202.14285"
       sodipodi:cy="413.07648"
       sodipodi:rx="217.85715"
       sodipodi:ry="219.28572"
       d="m 420,413.07648 c 0,121.10816 -97.53797,219.28572 -217.85715,219.28572 -120.319177,0 -217.857144,-98.17756 -217.857144,-219.28572 0,-121.10816 97.537967,-219.28572 217.857144,-219.28572 C 322.46203,193.79076 420,291.96832 420,413.07648 z"
       transform="matrix(0.28148475,0,0,0.27965053,844.13646,-66.44785)" />
    <path
       sodipodi:type="arc"
       style="fill:#729fcf;fill-opacity:1;fill-rule:nonzero;stroke:#000000;stroke-width:17.33732224;stroke-miterlimit:4;stroke-opacity:1;stroke-dasharray:none"
       id="path2816-5-9-9-3-1-9-3"
       sodipodi:cx="202.14285"
       sodipodi:cy="413.07648"
       sodipodi:rx="217.85715"
       sodipodi:ry="219.28572"
       d="m 420,413.07648 c 0,121.10816 -97.53797,219.28572 -217.85715,219.28572 -120.319177,0 -217.857144,-98.17756 -217.857144,-219.28572 0,-121.10816 97.537967,-219.28572 217.857144,-219.28572 C 322.46203,193.79076 420,291.96832 420,413.07648 z"
       transform="matrix(0.28148474,0,0,0.27965096,1103.3978,-66.51165)" />
  </g>
</svg>
